<?xml version="1.0" encoding="utf-8"?>
<!-- Generator: Adobe Illustrator 25.1.0, SVG Export Plug-In . SVG Version: 6.00 Build 0)  -->
<svg version="1.1" id="Calque_1" xmlns="http://www.w3.org/2000/svg" xmlns:xlink="http://www.w3.org/1999/xlink" x="0px" y="0px"
	 viewBox="0 0 250 83" style="enable-background:new 0 0 250 83;" xml:space="preserve">
<style type="text/css">
	.st0{fill:url(#SVGID_1_);}
	.st1{fill:url(#SVGID_2_);}
	.st2{fill:url(#SVGID_3_);}
	.st3{fill:url(#SVGID_4_);}
	.st4{font-family:'UniviaProRegular';}
	.st5{font-size:72px;}
</style>
<linearGradient id="SVGID_1_" gradientUnits="userSpaceOnUse" x1="10.3491" y1="67.3164" x2="57.3491" y2="67.3164">
	<stop  offset="0" style="stop-color:#FC8A21"/>
	<stop  offset="1" style="stop-color:#E1376A"/>
</linearGradient>
<path class="st0" d="M51.85,72.82h-36c-3.04,0-5.5-2.46-5.5-5.5s2.46-5.5,5.5-5.5h36c3.04,0,5.5,2.46,5.5,5.5
	S54.89,72.82,51.85,72.82z"/>
<linearGradient id="SVGID_2_" gradientUnits="userSpaceOnUse" x1="28.3486" y1="50.3164" x2="75.3486" y2="50.3164">
	<stop  offset="0" style="stop-color:#FC8A21"/>
	<stop  offset="1" style="stop-color:#E1376A"/>
</linearGradient>
<path class="st1" d="M69.85,55.82h-36c-3.04,0-5.5-2.46-5.5-5.5s2.46-5.5,5.5-5.5h36c3.04,0,5.5,2.46,5.5,5.5
	S72.89,55.82,69.85,55.82z"/>
<linearGradient id="SVGID_3_" gradientUnits="userSpaceOnUse" x1="10.3486" y1="32.3159" x2="57.3486" y2="32.3159">
	<stop  offset="0" style="stop-color:#FC8A21"/>
	<stop  offset="1" style="stop-color:#E1376A"/>
</linearGradient>
<path class="st2" d="M51.85,37.82h-36c-3.04,0-5.5-2.46-5.5-5.5s2.46-5.5,5.5-5.5h36c3.04,0,5.5,2.46,5.5,5.5
	S54.89,37.82,51.85,37.82z"/>
<linearGradient id="SVGID_4_" gradientUnits="userSpaceOnUse" x1="28.3486" y1="14.3159" x2="75.3486" y2="14.3159">
	<stop  offset="0" style="stop-color:#FC8A21"/>
	<stop  offset="1" style="stop-color:#E1376A"/>
</linearGradient>
<path class="st3" d="M69.85,19.82h-36c-3.04,0-5.5-2.46-5.5-5.5s2.46-5.5,5.5-5.5h36c3.04,0,5.5,2.46,5.5,5.5
	S72.89,19.82,69.85,19.82z"/>
<text transform="matrix(1 0 0 1 93.3489 63.8159)" class="st4 st5">styx</text>
</svg>
